<?xml version="1.0" encoding="UTF-8"?>
<svg width="750" height="560" viewBox="0 0 750 560" xmlns="http://www.w3.org/2000/svg">
  <rect x="0" y="0" width="750" height="560" fill="white"/>
  <rect x="200" y="100.0" width="350" height="380" fill="#f8f9fa" stroke="#2c3e50" stroke-width="2.5" rx="10" ry="10"/>
  <rect x="255.0" y="60.0" width="240" height="30" fill="white" stroke="none"/>
  <text x="375.0" y="82.0" text-anchor="middle" font-family="Arial, Helvetica, sans-serif" font-size="20" font-weight="bold" fill="#2c3e50">FIFO</text>
  <line x1="175" y1="134.54545454545456" x2="200" y2="134.54545454545456" stroke="#34495e" stroke-width="1.5"/>
  <rect x="10" y="124.54545454545456" width="160" height="20" fill="white" stroke="none"/>
  <text x="170" y="139.54545454545456" text-anchor="end" font-family="Arial, Helvetica, sans-serif" font-size="13" fill="#2c3e50">RESULT</text>
  <circle cx="200" cy="134.54545454545456" r="3.5" fill="#2c3e50"/>
  <line x1="175" y1="169.0909090909091" x2="200" y2="169.0909090909091" stroke="#34495e" stroke-width="1.5"/>
  <rect x="10" y="159.0909090909091" width="160" height="20" fill="white" stroke="none"/>
  <text x="170" y="174.0909090909091" text-anchor="end" font-family="Arial, Helvetica, sans-serif" font-size="13" fill="#2c3e50">DONE</text>
  <circle cx="200" cy="169.0909090909091" r="3.5" fill="#2c3e50"/>
  <line x1="175" y1="203.63636363636363" x2="200" y2="203.63636363636363" stroke="#34495e" stroke-width="1.5"/>
  <rect x="10" y="193.63636363636363" width="160" height="20" fill="white" stroke="none"/>
  <text x="170" y="208.63636363636363" text-anchor="end" font-family="Arial, Helvetica, sans-serif" font-size="13" fill="#2c3e50">SAMPLE_CLK</text>
  <circle cx="200" cy="203.63636363636363" r="3.5" fill="#2c3e50"/>
  <line x1="175" y1="238.1818181818182" x2="200" y2="238.1818181818182" stroke="#34495e" stroke-width="1.5"/>
  <rect x="10" y="228.1818181818182" width="160" height="20" fill="white" stroke="none"/>
  <text x="170" y="243.1818181818182" text-anchor="end" font-family="Arial, Helvetica, sans-serif" font-size="13" fill="#2c3e50">NRST_sync</text>
  <circle cx="200" cy="238.1818181818182" r="3.5" fill="#2c3e50"/>
  <line x1="175" y1="272.72727272727275" x2="200" y2="272.72727272727275" stroke="#34495e" stroke-width="1.5"/>
  <rect x="10" y="262.72727272727275" width="160" height="20" fill="white" stroke="none"/>
  <text x="170" y="277.72727272727275" text-anchor="end" font-family="Arial, Helvetica, sans-serif" font-size="13" fill="#2c3e50">ATMCHSEL</text>
  <circle cx="200" cy="272.72727272727275" r="3.5" fill="#2c3e50"/>
  <line x1="175" y1="307.27272727272725" x2="200" y2="307.27272727272725" stroke="#34495e" stroke-width="1.5"/>
  <rect x="10" y="297.27272727272725" width="160" height="20" fill="white" stroke="none"/>
  <text x="170" y="312.27272727272725" text-anchor="end" font-family="Arial, Helvetica, sans-serif" font-size="13" fill="#2c3e50">LASTWORD</text>
  <circle cx="200" cy="307.27272727272725" r="3.5" fill="#2c3e50"/>
  <line x1="175" y1="341.8181818181818" x2="200" y2="341.8181818181818" stroke="#34495e" stroke-width="1.5"/>
  <rect x="10" y="331.8181818181818" width="160" height="20" fill="white" stroke="none"/>
  <text x="170" y="346.8181818181818" text-anchor="end" font-family="Arial, Helvetica, sans-serif" font-size="13" fill="#2c3e50">FIFO_POP</text>
  <circle cx="200" cy="341.8181818181818" r="3.5" fill="#2c3e50"/>
  <line x1="175" y1="376.3636363636364" x2="200" y2="376.3636363636364" stroke="#34495e" stroke-width="1.5"/>
  <rect x="10" y="366.3636363636364" width="160" height="20" fill="white" stroke="none"/>
  <text x="170" y="381.3636363636364" text-anchor="end" font-family="Arial, Helvetica, sans-serif" font-size="13" fill="#2c3e50">FIFOWATERMARK</text>
  <circle cx="200" cy="376.3636363636364" r="3.5" fill="#2c3e50"/>
  <line x1="175" y1="410.90909090909093" x2="200" y2="410.90909090909093" stroke="#34495e" stroke-width="1.5"/>
  <rect x="10" y="400.90909090909093" width="160" height="20" fill="white" stroke="none"/>
  <text x="170" y="415.90909090909093" text-anchor="end" font-family="Arial, Helvetica, sans-serif" font-size="13" fill="#2c3e50">SCK</text>
  <circle cx="200" cy="410.90909090909093" r="3.5" fill="#2c3e50"/>
  <line x1="175" y1="445.4545454545455" x2="200" y2="445.4545454545455" stroke="#34495e" stroke-width="1.5"/>
  <rect x="10" y="435.4545454545455" width="160" height="20" fill="white" stroke="none"/>
  <text x="170" y="450.4545454545455" text-anchor="end" font-family="Arial, Helvetica, sans-serif" font-size="13" fill="#2c3e50">ENSAMP_sync</text>
  <circle cx="200" cy="445.4545454545455" r="3.5" fill="#2c3e50"/>
  <line x1="550" y1="176.0" x2="575" y2="176.0" stroke="#34495e" stroke-width="1.5"/>
  <rect x="580" y="166.0" width="160" height="20" fill="white" stroke="none"/>
  <text x="585" y="181.0" text-anchor="start" font-family="Arial, Helvetica, sans-serif" font-size="13" fill="#2c3e50">DATA_RDY</text>
  <circle cx="550" cy="176.0" r="3.5" fill="#2c3e50"/>
  <line x1="550" y1="252.0" x2="575" y2="252.0" stroke="#34495e" stroke-width="1.5"/>
  <rect x="580" y="242.0" width="160" height="20" fill="white" stroke="none"/>
  <text x="585" y="257.0" text-anchor="start" font-family="Arial, Helvetica, sans-serif" font-size="13" fill="#2c3e50">FIFO_OVERFLOW</text>
  <circle cx="550" cy="252.0" r="3.5" fill="#2c3e50"/>
  <line x1="550" y1="328.0" x2="575" y2="328.0" stroke="#34495e" stroke-width="1.5"/>
  <rect x="580" y="318.0" width="160" height="20" fill="white" stroke="none"/>
  <text x="585" y="333.0" text-anchor="start" font-family="Arial, Helvetica, sans-serif" font-size="13" fill="#2c3e50">ADC_data</text>
  <circle cx="550" cy="328.0" r="3.5" fill="#2c3e50"/>
  <line x1="550" y1="404.0" x2="575" y2="404.0" stroke="#34495e" stroke-width="1.5"/>
  <rect x="580" y="394.0" width="160" height="20" fill="white" stroke="none"/>
  <text x="585" y="409.0" text-anchor="start" font-family="Arial, Helvetica, sans-serif" font-size="13" fill="#2c3e50">FIFO_UNDERFLOW</text>
  <circle cx="550" cy="404.0" r="3.5" fill="#2c3e50"/>
  <text x="375.0" y="540" text-anchor="middle" font-family="Arial, Helvetica, sans-serif" font-size="11" fill="#7f8c8d">Inputs: 10  |  Outputs: 4</text>
</svg>