<?xml version="1.0" encoding="UTF-8"?>
<svg width="750" height="420" viewBox="0 0 750 420" xmlns="http://www.w3.org/2000/svg">
  <rect x="0" y="0" width="750" height="420" fill="white"/>
  <rect x="200" y="100.0" width="350" height="240" fill="#f8f9fa" stroke="#2c3e50" stroke-width="2.5" rx="10" ry="10"/>
  <rect x="255.0" y="60.0" width="240" height="30" fill="white" stroke="none"/>
  <text x="375.0" y="82.0" text-anchor="middle" font-family="Arial, Helvetica, sans-serif" font-size="20" font-weight="bold" fill="#2c3e50">ATM_Control</text>
  <line x1="175" y1="134.28571428571428" x2="200" y2="134.28571428571428" stroke="#34495e" stroke-width="1.5"/>
  <rect x="10" y="124.28571428571428" width="160" height="20" fill="white" stroke="none"/>
  <text x="170" y="139.28571428571428" text-anchor="end" font-family="Arial, Helvetica, sans-serif" font-size="13" fill="#2c3e50">SAMPLE_CLK</text>
  <circle cx="200" cy="134.28571428571428" r="3.5" fill="#2c3e50"/>
  <line x1="175" y1="168.57142857142856" x2="200" y2="168.57142857142856" stroke="#34495e" stroke-width="1.5"/>
  <rect x="10" y="158.57142857142856" width="160" height="20" fill="white" stroke="none"/>
  <text x="170" y="173.57142857142856" text-anchor="end" font-family="Arial, Helvetica, sans-serif" font-size="13" fill="#2c3e50">ENSAMP_sync</text>
  <circle cx="200" cy="168.57142857142856" r="3.5" fill="#2c3e50"/>
  <line x1="175" y1="202.85714285714286" x2="200" y2="202.85714285714286" stroke="#34495e" stroke-width="1.5"/>
  <rect x="10" y="192.85714285714286" width="160" height="20" fill="white" stroke="none"/>
  <text x="170" y="207.85714285714286" text-anchor="end" font-family="Arial, Helvetica, sans-serif" font-size="13" fill="#2c3e50">CHEN_sync</text>
  <circle cx="200" cy="202.85714285714286" r="3.5" fill="#2c3e50"/>
  <line x1="175" y1="237.14285714285714" x2="200" y2="237.14285714285714" stroke="#34495e" stroke-width="1.5"/>
  <rect x="10" y="227.14285714285714" width="160" height="20" fill="white" stroke="none"/>
  <text x="170" y="242.14285714285714" text-anchor="end" font-family="Arial, Helvetica, sans-serif" font-size="13" fill="#2c3e50">OSR_sync</text>
  <circle cx="200" cy="237.14285714285714" r="3.5" fill="#2c3e50"/>
  <line x1="175" y1="271.42857142857144" x2="200" y2="271.42857142857144" stroke="#34495e" stroke-width="1.5"/>
  <rect x="10" y="261.42857142857144" width="160" height="20" fill="white" stroke="none"/>
  <text x="170" y="276.42857142857144" text-anchor="end" font-family="Arial, Helvetica, sans-serif" font-size="13" fill="#2c3e50">NRST_sync</text>
  <circle cx="200" cy="271.42857142857144" r="3.5" fill="#2c3e50"/>
  <line x1="175" y1="305.7142857142857" x2="200" y2="305.7142857142857" stroke="#34495e" stroke-width="1.5"/>
  <rect x="10" y="295.7142857142857" width="160" height="20" fill="white" stroke="none"/>
  <text x="170" y="310.7142857142857" text-anchor="end" font-family="Arial, Helvetica, sans-serif" font-size="13" fill="#2c3e50">ENLOWPWR_sync</text>
  <circle cx="200" cy="305.7142857142857" r="3.5" fill="#2c3e50"/>
  <line x1="550" y1="148.0" x2="575" y2="148.0" stroke="#34495e" stroke-width="1.5"/>
  <rect x="580" y="138.0" width="160" height="20" fill="white" stroke="none"/>
  <text x="585" y="153.0" text-anchor="start" font-family="Arial, Helvetica, sans-serif" font-size="13" fill="#2c3e50">ATMCHSEL</text>
  <circle cx="550" cy="148.0" r="3.5" fill="#2c3e50"/>
  <line x1="550" y1="196.0" x2="575" y2="196.0" stroke="#34495e" stroke-width="1.5"/>
  <rect x="580" y="186.0" width="160" height="20" fill="white" stroke="none"/>
  <text x="585" y="201.0" text-anchor="start" font-family="Arial, Helvetica, sans-serif" font-size="13" fill="#2c3e50">ATMCHSEL_DATA</text>
  <circle cx="550" cy="196.0" r="3.5" fill="#2c3e50"/>
  <line x1="550" y1="244.0" x2="575" y2="244.0" stroke="#34495e" stroke-width="1.5"/>
  <rect x="580" y="234.0" width="160" height="20" fill="white" stroke="none"/>
  <text x="585" y="249.0" text-anchor="start" font-family="Arial, Helvetica, sans-serif" font-size="13" fill="#2c3e50">CHSEL</text>
  <circle cx="550" cy="244.0" r="3.5" fill="#2c3e50"/>
  <line x1="550" y1="292.0" x2="575" y2="292.0" stroke="#34495e" stroke-width="1.5"/>
  <rect x="580" y="282.0" width="160" height="20" fill="white" stroke="none"/>
  <text x="585" y="297.0" text-anchor="start" font-family="Arial, Helvetica, sans-serif" font-size="13" fill="#2c3e50">LASTWORD</text>
  <circle cx="550" cy="292.0" r="3.5" fill="#2c3e50"/>
  <text x="375.0" y="400" text-anchor="middle" font-family="Arial, Helvetica, sans-serif" font-size="11" fill="#7f8c8d">Inputs: 6  |  Outputs: 4</text>
</svg>