<?xml version="1.0" encoding="UTF-8"?>
<svg width="750" height="455" viewBox="0 0 750 455" xmlns="http://www.w3.org/2000/svg">
  <rect x="0" y="0" width="750" height="455" fill="white"/>
  <rect x="200" y="100.0" width="350" height="275" fill="#f8f9fa" stroke="#2c3e50" stroke-width="2.5" rx="10" ry="10"/>
  <rect x="255.0" y="60.0" width="240" height="30" fill="white" stroke="none"/>
  <text x="375.0" y="82.0" text-anchor="middle" font-family="Arial, Helvetica, sans-serif" font-size="20" font-weight="bold" fill="#2c3e50">Dual_phase_gated_burst_divider</text>
  <line x1="175" y1="134.375" x2="200" y2="134.375" stroke="#34495e" stroke-width="1.5"/>
  <rect x="10" y="124.375" width="160" height="20" fill="white" stroke="none"/>
  <text x="170" y="139.375" text-anchor="end" font-family="Arial, Helvetica, sans-serif" font-size="13" fill="#2c3e50">PHASE1DIV1_sync</text>
  <circle cx="200" cy="134.375" r="3.5" fill="#2c3e50"/>
  <line x1="175" y1="168.75" x2="200" y2="168.75" stroke="#34495e" stroke-width="1.5"/>
  <rect x="10" y="158.75" width="160" height="20" fill="white" stroke="none"/>
  <text x="170" y="173.75" text-anchor="end" font-family="Arial, Helvetica, sans-serif" font-size="13" fill="#2c3e50">PHASE1COUNT_sync</text>
  <circle cx="200" cy="168.75" r="3.5" fill="#2c3e50"/>
  <line x1="175" y1="203.125" x2="200" y2="203.125" stroke="#34495e" stroke-width="1.5"/>
  <rect x="10" y="193.125" width="160" height="20" fill="white" stroke="none"/>
  <text x="170" y="208.125" text-anchor="end" font-family="Arial, Helvetica, sans-serif" font-size="13" fill="#2c3e50">PHASE2COUNT_sync</text>
  <circle cx="200" cy="203.125" r="3.5" fill="#2c3e50"/>
  <line x1="175" y1="237.5" x2="200" y2="237.5" stroke="#34495e" stroke-width="1.5"/>
  <rect x="10" y="227.5" width="160" height="20" fill="white" stroke="none"/>
  <text x="170" y="242.5" text-anchor="end" font-family="Arial, Helvetica, sans-serif" font-size="13" fill="#2c3e50">HF_CLK</text>
  <circle cx="200" cy="237.5" r="3.5" fill="#2c3e50"/>
  <line x1="175" y1="271.875" x2="200" y2="271.875" stroke="#34495e" stroke-width="1.5"/>
  <rect x="10" y="261.875" width="160" height="20" fill="white" stroke="none"/>
  <text x="170" y="276.875" text-anchor="end" font-family="Arial, Helvetica, sans-serif" font-size="13" fill="#2c3e50">ENSAMP_sync</text>
  <circle cx="200" cy="271.875" r="3.5" fill="#2c3e50"/>
  <line x1="175" y1="306.25" x2="200" y2="306.25" stroke="#34495e" stroke-width="1.5"/>
  <rect x="10" y="296.25" width="160" height="20" fill="white" stroke="none"/>
  <text x="170" y="311.25" text-anchor="end" font-family="Arial, Helvetica, sans-serif" font-size="13" fill="#2c3e50">NRST_sync</text>
  <circle cx="200" cy="306.25" r="3.5" fill="#2c3e50"/>
  <line x1="175" y1="340.625" x2="200" y2="340.625" stroke="#34495e" stroke-width="1.5"/>
  <rect x="10" y="330.625" width="160" height="20" fill="white" stroke="none"/>
  <text x="170" y="345.625" text-anchor="end" font-family="Arial, Helvetica, sans-serif" font-size="13" fill="#2c3e50">TEMP_RUN</text>
  <circle cx="200" cy="340.625" r="3.5" fill="#2c3e50"/>
  <line x1="550" y1="191.66666666666669" x2="575" y2="191.66666666666669" stroke="#34495e" stroke-width="1.5"/>
  <rect x="580" y="181.66666666666669" width="160" height="20" fill="white" stroke="none"/>
  <text x="585" y="196.66666666666669" text-anchor="start" font-family="Arial, Helvetica, sans-serif" font-size="13" fill="#2c3e50">SAMPLE_CLK</text>
  <circle cx="550" cy="191.66666666666669" r="3.5" fill="#2c3e50"/>
  <line x1="550" y1="283.33333333333337" x2="575" y2="283.33333333333337" stroke="#34495e" stroke-width="1.5"/>
  <rect x="580" y="273.33333333333337" width="160" height="20" fill="white" stroke="none"/>
  <text x="585" y="288.33333333333337" text-anchor="start" font-family="Arial, Helvetica, sans-serif" font-size="13" fill="#2c3e50">phase</text>
  <circle cx="550" cy="283.33333333333337" r="3.5" fill="#2c3e50"/>
  <text x="375.0" y="435" text-anchor="middle" font-family="Arial, Helvetica, sans-serif" font-size="11" fill="#7f8c8d">Inputs: 7  |  Outputs: 2</text>
</svg>