<?xml version="1.0" encoding="UTF-8"?>
<svg width="750" height="630" viewBox="0 0 750 630" xmlns="http://www.w3.org/2000/svg">
  <rect x="0" y="0" width="750" height="630" fill="white"/>
  <rect x="200" y="100.0" width="350" height="450" fill="#f8f9fa" stroke="#2c3e50" stroke-width="2.5" rx="10" ry="10"/>
  <rect x="255.0" y="60.0" width="240" height="30" fill="white" stroke="none"/>
  <text x="375.0" y="82.0" text-anchor="middle" font-family="Arial, Helvetica, sans-serif" font-size="20" font-weight="bold" fill="#2c3e50">FIFO</text>
  <line x1="175" y1="134.6153846153846" x2="200" y2="134.6153846153846" stroke="#34495e" stroke-width="1.5"/>
  <rect x="10" y="124.61538461538461" width="160" height="20" fill="white" stroke="none"/>
  <text x="170" y="139.6153846153846" text-anchor="end" font-family="Arial, Helvetica, sans-serif" font-size="13" fill="#2c3e50">RESULT</text>
  <circle cx="200" cy="134.6153846153846" r="3.5" fill="#2c3e50"/>
  <line x1="175" y1="169.23076923076923" x2="200" y2="169.23076923076923" stroke="#34495e" stroke-width="1.5"/>
  <rect x="10" y="159.23076923076923" width="160" height="20" fill="white" stroke="none"/>
  <text x="170" y="174.23076923076923" text-anchor="end" font-family="Arial, Helvetica, sans-serif" font-size="13" fill="#2c3e50">DONE</text>
  <circle cx="200" cy="169.23076923076923" r="3.5" fill="#2c3e50"/>
  <line x1="175" y1="203.84615384615384" x2="200" y2="203.84615384615384" stroke="#34495e" stroke-width="1.5"/>
  <rect x="10" y="193.84615384615384" width="160" height="20" fill="white" stroke="none"/>
  <text x="170" y="208.84615384615384" text-anchor="end" font-family="Arial, Helvetica, sans-serif" font-size="13" fill="#2c3e50">SAMPLE_CLK</text>
  <circle cx="200" cy="203.84615384615384" r="3.5" fill="#2c3e50"/>
  <line x1="175" y1="238.46153846153845" x2="200" y2="238.46153846153845" stroke="#34495e" stroke-width="1.5"/>
  <rect x="10" y="228.46153846153845" width="160" height="20" fill="white" stroke="none"/>
  <text x="170" y="243.46153846153845" text-anchor="end" font-family="Arial, Helvetica, sans-serif" font-size="13" fill="#2c3e50">NRST_sync</text>
  <circle cx="200" cy="238.46153846153845" r="3.5" fill="#2c3e50"/>
  <line x1="175" y1="273.0769230769231" x2="200" y2="273.0769230769231" stroke="#34495e" stroke-width="1.5"/>
  <rect x="10" y="263.0769230769231" width="160" height="20" fill="white" stroke="none"/>
  <text x="170" y="278.0769230769231" text-anchor="end" font-family="Arial, Helvetica, sans-serif" font-size="13" fill="#2c3e50">ATMCHSEL</text>
  <circle cx="200" cy="273.0769230769231" r="3.5" fill="#2c3e50"/>
  <line x1="175" y1="307.6923076923077" x2="200" y2="307.6923076923077" stroke="#34495e" stroke-width="1.5"/>
  <rect x="10" y="297.6923076923077" width="160" height="20" fill="white" stroke="none"/>
  <text x="170" y="312.6923076923077" text-anchor="end" font-family="Arial, Helvetica, sans-serif" font-size="13" fill="#2c3e50">LASTWORD</text>
  <circle cx="200" cy="307.6923076923077" r="3.5" fill="#2c3e50"/>
  <line x1="175" y1="342.30769230769226" x2="200" y2="342.30769230769226" stroke="#34495e" stroke-width="1.5"/>
  <rect x="10" y="332.30769230769226" width="160" height="20" fill="white" stroke="none"/>
  <text x="170" y="347.30769230769226" text-anchor="end" font-family="Arial, Helvetica, sans-serif" font-size="13" fill="#2c3e50">FIFO_POP</text>
  <circle cx="200" cy="342.30769230769226" r="3.5" fill="#2c3e50"/>
  <line x1="175" y1="376.9230769230769" x2="200" y2="376.9230769230769" stroke="#34495e" stroke-width="1.5"/>
  <rect x="10" y="366.9230769230769" width="160" height="20" fill="white" stroke="none"/>
  <text x="170" y="381.9230769230769" text-anchor="end" font-family="Arial, Helvetica, sans-serif" font-size="13" fill="#2c3e50">FIFOWATERMARK</text>
  <circle cx="200" cy="376.9230769230769" r="3.5" fill="#2c3e50"/>
  <line x1="175" y1="411.53846153846155" x2="200" y2="411.53846153846155" stroke="#34495e" stroke-width="1.5"/>
  <rect x="10" y="401.53846153846155" width="160" height="20" fill="white" stroke="none"/>
  <text x="170" y="416.53846153846155" text-anchor="end" font-family="Arial, Helvetica, sans-serif" font-size="13" fill="#2c3e50">SCK</text>
  <circle cx="200" cy="411.53846153846155" r="3.5" fill="#2c3e50"/>
  <line x1="175" y1="446.15384615384613" x2="200" y2="446.15384615384613" stroke="#34495e" stroke-width="1.5"/>
  <rect x="10" y="436.15384615384613" width="160" height="20" fill="white" stroke="none"/>
  <text x="170" y="451.15384615384613" text-anchor="end" font-family="Arial, Helvetica, sans-serif" font-size="13" fill="#2c3e50">ENSAMP_sync</text>
  <circle cx="200" cy="446.15384615384613" r="3.5" fill="#2c3e50"/>
  <line x1="175" y1="480.7692307692307" x2="200" y2="480.7692307692307" stroke="#34495e" stroke-width="1.5"/>
  <rect x="10" y="470.7692307692307" width="160" height="20" fill="white" stroke="none"/>
  <text x="170" y="485.7692307692307" text-anchor="end" font-family="Arial, Helvetica, sans-serif" font-size="13" fill="#2c3e50">bin</text>
  <circle cx="200" cy="480.7692307692307" r="3.5" fill="#2c3e50"/>
  <line x1="175" y1="515.3846153846154" x2="200" y2="515.3846153846154" stroke="#34495e" stroke-width="1.5"/>
  <rect x="10" y="505.38461538461536" width="160" height="20" fill="white" stroke="none"/>
  <text x="170" y="520.3846153846154" text-anchor="end" font-family="Arial, Helvetica, sans-serif" font-size="13" fill="#2c3e50">gray</text>
  <circle cx="200" cy="515.3846153846154" r="3.5" fill="#2c3e50"/>
  <line x1="550" y1="190.0" x2="575" y2="190.0" stroke="#34495e" stroke-width="1.5"/>
  <rect x="580" y="180.0" width="160" height="20" fill="white" stroke="none"/>
  <text x="585" y="195.0" text-anchor="start" font-family="Arial, Helvetica, sans-serif" font-size="13" fill="#2c3e50">DATA_RDY</text>
  <circle cx="550" cy="190.0" r="3.5" fill="#2c3e50"/>
  <line x1="550" y1="280.0" x2="575" y2="280.0" stroke="#34495e" stroke-width="1.5"/>
  <rect x="580" y="270.0" width="160" height="20" fill="white" stroke="none"/>
  <text x="585" y="285.0" text-anchor="start" font-family="Arial, Helvetica, sans-serif" font-size="13" fill="#2c3e50">FIFO_OVERFLOW</text>
  <circle cx="550" cy="280.0" r="3.5" fill="#2c3e50"/>
  <line x1="550" y1="370.0" x2="575" y2="370.0" stroke="#34495e" stroke-width="1.5"/>
  <rect x="580" y="360.0" width="160" height="20" fill="white" stroke="none"/>
  <text x="585" y="375.0" text-anchor="start" font-family="Arial, Helvetica, sans-serif" font-size="13" fill="#2c3e50">ADC_data</text>
  <circle cx="550" cy="370.0" r="3.5" fill="#2c3e50"/>
  <line x1="550" y1="460.0" x2="575" y2="460.0" stroke="#34495e" stroke-width="1.5"/>
  <rect x="580" y="450.0" width="160" height="20" fill="white" stroke="none"/>
  <text x="585" y="465.0" text-anchor="start" font-family="Arial, Helvetica, sans-serif" font-size="13" fill="#2c3e50">FIFO_UNDERFLOW</text>
  <circle cx="550" cy="460.0" r="3.5" fill="#2c3e50"/>
  <text x="375.0" y="610" text-anchor="middle" font-family="Arial, Helvetica, sans-serif" font-size="11" fill="#7f8c8d">Inputs: 12  |  Outputs: 4</text>
</svg>