<?xml version="1.0" encoding="UTF-8"?>
<svg width="750" height="385" viewBox="0 0 750 385" xmlns="http://www.w3.org/2000/svg">
  <rect x="0" y="0" width="750" height="385" fill="white"/>
  <rect x="200" y="100.0" width="350" height="205" fill="#f8f9fa" stroke="#2c3e50" stroke-width="2.5" rx="10" ry="10"/>
  <rect x="255.0" y="60.0" width="240" height="30" fill="white" stroke="none"/>
  <text x="375.0" y="82.0" text-anchor="middle" font-family="Arial, Helvetica, sans-serif" font-size="20" font-weight="bold" fill="#2c3e50">Status_Clear_CDC</text>
  <line x1="175" y1="134.16666666666666" x2="200" y2="134.16666666666666" stroke="#34495e" stroke-width="1.5"/>
  <rect x="10" y="124.16666666666666" width="160" height="20" fill="white" stroke="none"/>
  <text x="170" y="139.16666666666666" text-anchor="end" font-family="Arial, Helvetica, sans-serif" font-size="13" fill="#2c3e50">HF_CLK</text>
  <circle cx="200" cy="134.16666666666666" r="3.5" fill="#2c3e50"/>
  <line x1="175" y1="168.33333333333331" x2="200" y2="168.33333333333331" stroke="#34495e" stroke-width="1.5"/>
  <rect x="10" y="158.33333333333331" width="160" height="20" fill="white" stroke="none"/>
  <text x="170" y="173.33333333333331" text-anchor="end" font-family="Arial, Helvetica, sans-serif" font-size="13" fill="#2c3e50">NRST_sync</text>
  <circle cx="200" cy="168.33333333333331" r="3.5" fill="#2c3e50"/>
  <line x1="175" y1="202.5" x2="200" y2="202.5" stroke="#34495e" stroke-width="1.5"/>
  <rect x="10" y="192.5" width="160" height="20" fill="white" stroke="none"/>
  <text x="170" y="207.5" text-anchor="end" font-family="Arial, Helvetica, sans-serif" font-size="13" fill="#2c3e50">status_clr_req_tgl_sck</text>
  <circle cx="200" cy="202.5" r="3.5" fill="#2c3e50"/>
  <line x1="175" y1="236.66666666666666" x2="200" y2="236.66666666666666" stroke="#34495e" stroke-width="1.5"/>
  <rect x="10" y="226.66666666666666" width="160" height="20" fill="white" stroke="none"/>
  <text x="170" y="241.66666666666666" text-anchor="end" font-family="Arial, Helvetica, sans-serif" font-size="13" fill="#2c3e50">status_clr_lo_sck</text>
  <circle cx="200" cy="236.66666666666666" r="3.5" fill="#2c3e50"/>
  <line x1="175" y1="270.8333333333333" x2="200" y2="270.8333333333333" stroke="#34495e" stroke-width="1.5"/>
  <rect x="10" y="260.8333333333333" width="160" height="20" fill="white" stroke="none"/>
  <text x="170" y="275.8333333333333" text-anchor="end" font-family="Arial, Helvetica, sans-serif" font-size="13" fill="#2c3e50">status_clr_hi_sck</text>
  <circle cx="200" cy="270.8333333333333" r="3.5" fill="#2c3e50"/>
  <line x1="550" y1="151.25" x2="575" y2="151.25" stroke="#34495e" stroke-width="1.5"/>
  <rect x="580" y="141.25" width="160" height="20" fill="white" stroke="none"/>
  <text x="585" y="156.25" text-anchor="start" font-family="Arial, Helvetica, sans-serif" font-size="13" fill="#2c3e50">status_clr_ack_tgl_hf</text>
  <circle cx="550" cy="151.25" r="3.5" fill="#2c3e50"/>
  <line x1="550" y1="202.5" x2="575" y2="202.5" stroke="#34495e" stroke-width="1.5"/>
  <rect x="580" y="192.5" width="160" height="20" fill="white" stroke="none"/>
  <text x="585" y="207.5" text-anchor="start" font-family="Arial, Helvetica, sans-serif" font-size="13" fill="#2c3e50">status_clr_pulse</text>
  <circle cx="550" cy="202.5" r="3.5" fill="#2c3e50"/>
  <line x1="550" y1="253.75" x2="575" y2="253.75" stroke="#34495e" stroke-width="1.5"/>
  <rect x="580" y="243.75" width="160" height="20" fill="white" stroke="none"/>
  <text x="585" y="258.75" text-anchor="start" font-family="Arial, Helvetica, sans-serif" font-size="13" fill="#2c3e50">status_clr_mask</text>
  <circle cx="550" cy="253.75" r="3.5" fill="#2c3e50"/>
  <text x="375.0" y="365" text-anchor="middle" font-family="Arial, Helvetica, sans-serif" font-size="11" fill="#7f8c8d">Inputs: 5  |  Outputs: 3</text>
</svg>