<?xml version="1.0" encoding="UTF-8"?>
<svg width="750" height="595" viewBox="0 0 750 595" xmlns="http://www.w3.org/2000/svg">
  <rect x="0" y="0" width="750" height="595" fill="white"/>
  <rect x="200" y="100.0" width="350" height="415" fill="#f8f9fa" stroke="#2c3e50" stroke-width="2.5" rx="10" ry="10"/>
  <rect x="255.0" y="60.0" width="240" height="30" fill="white" stroke="none"/>
  <text x="375.0" y="82.0" text-anchor="middle" font-family="Arial, Helvetica, sans-serif" font-size="20" font-weight="bold" fill="#2c3e50">Status_Monitor</text>
  <line x1="175" y1="134.58333333333334" x2="200" y2="134.58333333333334" stroke="#34495e" stroke-width="1.5"/>
  <rect x="10" y="124.58333333333334" width="160" height="20" fill="white" stroke="none"/>
  <text x="170" y="139.58333333333334" text-anchor="end" font-family="Arial, Helvetica, sans-serif" font-size="13" fill="#2c3e50">NRST_sync</text>
  <circle cx="200" cy="134.58333333333334" r="3.5" fill="#2c3e50"/>
  <line x1="175" y1="169.16666666666669" x2="200" y2="169.16666666666669" stroke="#34495e" stroke-width="1.5"/>
  <rect x="10" y="159.16666666666669" width="160" height="20" fill="white" stroke="none"/>
  <text x="170" y="174.16666666666669" text-anchor="end" font-family="Arial, Helvetica, sans-serif" font-size="13" fill="#2c3e50">HF_CLK</text>
  <circle cx="200" cy="169.16666666666669" r="3.5" fill="#2c3e50"/>
  <line x1="175" y1="203.75" x2="200" y2="203.75" stroke="#34495e" stroke-width="1.5"/>
  <rect x="10" y="193.75" width="160" height="20" fill="white" stroke="none"/>
  <text x="170" y="208.75" text-anchor="end" font-family="Arial, Helvetica, sans-serif" font-size="13" fill="#2c3e50">ENSAMP_sync</text>
  <circle cx="200" cy="203.75" r="3.5" fill="#2c3e50"/>
  <line x1="175" y1="238.33333333333334" x2="200" y2="238.33333333333334" stroke="#34495e" stroke-width="1.5"/>
  <rect x="10" y="228.33333333333334" width="160" height="20" fill="white" stroke="none"/>
  <text x="170" y="243.33333333333334" text-anchor="end" font-family="Arial, Helvetica, sans-serif" font-size="13" fill="#2c3e50">CRCCFG</text>
  <circle cx="200" cy="238.33333333333334" r="3.5" fill="#2c3e50"/>
  <line x1="175" y1="272.9166666666667" x2="200" y2="272.9166666666667" stroke="#34495e" stroke-width="1.5"/>
  <rect x="10" y="262.9166666666667" width="160" height="20" fill="white" stroke="none"/>
  <text x="170" y="277.9166666666667" text-anchor="end" font-family="Arial, Helvetica, sans-serif" font-size="13" fill="#2c3e50">AFERSTCH_sync</text>
  <circle cx="200" cy="272.9166666666667" r="3.5" fill="#2c3e50"/>
  <line x1="175" y1="307.5" x2="200" y2="307.5" stroke="#34495e" stroke-width="1.5"/>
  <rect x="10" y="297.5" width="160" height="20" fill="white" stroke="none"/>
  <text x="170" y="312.5" text-anchor="end" font-family="Arial, Helvetica, sans-serif" font-size="13" fill="#2c3e50">FIFO_OVERFLOW_sync</text>
  <circle cx="200" cy="307.5" r="3.5" fill="#2c3e50"/>
  <line x1="175" y1="342.08333333333337" x2="200" y2="342.08333333333337" stroke="#34495e" stroke-width="1.5"/>
  <rect x="10" y="332.08333333333337" width="160" height="20" fill="white" stroke="none"/>
  <text x="170" y="347.08333333333337" text-anchor="end" font-family="Arial, Helvetica, sans-serif" font-size="13" fill="#2c3e50">FIFO_UNDERFLOW_sync</text>
  <circle cx="200" cy="342.08333333333337" r="3.5" fill="#2c3e50"/>
  <line x1="175" y1="376.6666666666667" x2="200" y2="376.6666666666667" stroke="#34495e" stroke-width="1.5"/>
  <rect x="10" y="366.6666666666667" width="160" height="20" fill="white" stroke="none"/>
  <text x="170" y="381.6666666666667" text-anchor="end" font-family="Arial, Helvetica, sans-serif" font-size="13" fill="#2c3e50">ADCOVERFLOW</text>
  <circle cx="200" cy="376.6666666666667" r="3.5" fill="#2c3e50"/>
  <line x1="175" y1="411.25" x2="200" y2="411.25" stroke="#34495e" stroke-width="1.5"/>
  <rect x="10" y="401.25" width="160" height="20" fill="white" stroke="none"/>
  <text x="170" y="416.25" text-anchor="end" font-family="Arial, Helvetica, sans-serif" font-size="13" fill="#2c3e50">SATDETECT_sync</text>
  <circle cx="200" cy="411.25" r="3.5" fill="#2c3e50"/>
  <line x1="175" y1="445.83333333333337" x2="200" y2="445.83333333333337" stroke="#34495e" stroke-width="1.5"/>
  <rect x="10" y="435.83333333333337" width="160" height="20" fill="white" stroke="none"/>
  <text x="170" y="450.83333333333337" text-anchor="end" font-family="Arial, Helvetica, sans-serif" font-size="13" fill="#2c3e50">status_clr_pulse</text>
  <circle cx="200" cy="445.83333333333337" r="3.5" fill="#2c3e50"/>
  <line x1="175" y1="480.4166666666667" x2="200" y2="480.4166666666667" stroke="#34495e" stroke-width="1.5"/>
  <rect x="10" y="470.4166666666667" width="160" height="20" fill="white" stroke="none"/>
  <text x="170" y="485.4166666666667" text-anchor="end" font-family="Arial, Helvetica, sans-serif" font-size="13" fill="#2c3e50">status_clr_mask</text>
  <circle cx="200" cy="480.4166666666667" r="3.5" fill="#2c3e50"/>
  <line x1="550" y1="307.5" x2="575" y2="307.5" stroke="#34495e" stroke-width="1.5"/>
  <rect x="580" y="297.5" width="160" height="20" fill="white" stroke="none"/>
  <text x="585" y="312.5" text-anchor="start" font-family="Arial, Helvetica, sans-serif" font-size="13" fill="#2c3e50">status</text>
  <circle cx="550" cy="307.5" r="3.5" fill="#2c3e50"/>
  <text x="375.0" y="575" text-anchor="middle" font-family="Arial, Helvetica, sans-serif" font-size="11" fill="#7f8c8d">Inputs: 11  |  Outputs: 1</text>
</svg>