<?xml version="1.0" encoding="UTF-8"?>
<svg width="750" height="380" viewBox="0 0 750 380" xmlns="http://www.w3.org/2000/svg">
  <rect x="0" y="0" width="750" height="380" fill="white"/>
  <rect x="200" y="85.0" width="350" height="200" fill="#f8f9fa" stroke="#2c3e50" stroke-width="2.5" rx="10" ry="10"/>
  <rect x="255.0" y="45.0" width="240" height="30" fill="white" stroke="none"/>
  <text x="375.0" y="67.0" text-anchor="middle" font-family="Arial, Helvetica, sans-serif" font-size="20" font-weight="bold" fill="#2c3e50">TempSense_Control</text>
  <line x1="175" y1="125.0" x2="200" y2="125.0" stroke="#34495e" stroke-width="1.5"/>
  <rect x="10" y="115.0" width="160" height="20" fill="white" stroke="none"/>
  <text x="170" y="130.0" text-anchor="end" font-family="Arial, Helvetica, sans-serif" font-size="13" fill="#2c3e50">HF_CLK</text>
  <circle cx="200" cy="125.0" r="3.5" fill="#2c3e50"/>
  <line x1="175" y1="165.0" x2="200" y2="165.0" stroke="#34495e" stroke-width="1.5"/>
  <rect x="10" y="155.0" width="160" height="20" fill="white" stroke="none"/>
  <text x="170" y="170.0" text-anchor="end" font-family="Arial, Helvetica, sans-serif" font-size="13" fill="#2c3e50">NRST_sync</text>
  <circle cx="200" cy="165.0" r="3.5" fill="#2c3e50"/>
  <line x1="175" y1="205.0" x2="200" y2="205.0" stroke="#34495e" stroke-width="1.5"/>
  <rect x="10" y="195.0" width="160" height="20" fill="white" stroke="none"/>
  <text x="170" y="210.0" text-anchor="end" font-family="Arial, Helvetica, sans-serif" font-size="13" fill="#2c3e50">ENMONTSENSE_sync</text>
  <circle cx="200" cy="205.0" r="3.5" fill="#2c3e50"/>
  <line x1="175" y1="245.0" x2="200" y2="245.0" stroke="#34495e" stroke-width="1.5"/>
  <rect x="10" y="235.0" width="160" height="20" fill="white" stroke="none"/>
  <text x="170" y="250.0" text-anchor="end" font-family="Arial, Helvetica, sans-serif" font-size="13" fill="#2c3e50">DONE</text>
  <circle cx="200" cy="245.0" r="3.5" fill="#2c3e50"/>
  <line x1="550" y1="185.0" x2="575" y2="185.0" stroke="#34495e" stroke-width="1.5"/>
  <rect x="580" y="175.0" width="160" height="20" fill="white" stroke="none"/>
  <text x="585" y="190.0" text-anchor="start" font-family="Arial, Helvetica, sans-serif" font-size="13" fill="#2c3e50">temp_run</text>
  <circle cx="550" cy="185.0" r="3.5" fill="#2c3e50"/>
  <text x="375.0" y="360" text-anchor="middle" font-family="Arial, Helvetica, sans-serif" font-size="11" fill="#7f8c8d">Inputs: 4  |  Outputs: 1</text>
</svg>