<?xml version="1.0" encoding="UTF-8"?>
<svg width="750" height="3535" viewBox="0 0 750 3535" xmlns="http://www.w3.org/2000/svg">
  <rect x="0" y="0" width="750" height="3535" fill="white"/>
  <rect x="200" y="100.0" width="350" height="3355" fill="#f8f9fa" stroke="#2c3e50" stroke-width="2.5" rx="10" ry="10"/>
  <rect x="255.0" y="60.0" width="240" height="30" fill="white" stroke="none"/>
  <text x="375.0" y="82.0" text-anchor="middle" font-family="Arial, Helvetica, sans-serif" font-size="20" font-weight="bold" fill="#2c3e50">TLM</text>
  <line x1="175" y1="379.5833333333333" x2="200" y2="379.5833333333333" stroke="#34495e" stroke-width="1.5"/>
  <rect x="10" y="369.5833333333333" width="160" height="20" fill="white" stroke="none"/>
  <text x="170" y="384.5833333333333" text-anchor="end" font-family="Arial, Helvetica, sans-serif" font-size="13" fill="#2c3e50">RESETN</text>
  <circle cx="200" cy="379.5833333333333" r="3.5" fill="#2c3e50"/>
  <line x1="175" y1="659.1666666666666" x2="200" y2="659.1666666666666" stroke="#34495e" stroke-width="1.5"/>
  <rect x="10" y="649.1666666666666" width="160" height="20" fill="white" stroke="none"/>
  <text x="170" y="664.1666666666666" text-anchor="end" font-family="Arial, Helvetica, sans-serif" font-size="13" fill="#2c3e50">MOSI</text>
  <circle cx="200" cy="659.1666666666666" r="3.5" fill="#2c3e50"/>
  <line x1="175" y1="938.75" x2="200" y2="938.75" stroke="#34495e" stroke-width="1.5"/>
  <rect x="10" y="928.75" width="160" height="20" fill="white" stroke="none"/>
  <text x="170" y="943.75" text-anchor="end" font-family="Arial, Helvetica, sans-serif" font-size="13" fill="#2c3e50">SCK</text>
  <circle cx="200" cy="938.75" r="3.5" fill="#2c3e50"/>
  <line x1="175" y1="1218.3333333333333" x2="200" y2="1218.3333333333333" stroke="#34495e" stroke-width="1.5"/>
  <rect x="10" y="1208.3333333333333" width="160" height="20" fill="white" stroke="none"/>
  <text x="170" y="1223.3333333333333" text-anchor="end" font-family="Arial, Helvetica, sans-serif" font-size="13" fill="#2c3e50">CS</text>
  <circle cx="200" cy="1218.3333333333333" r="3.5" fill="#2c3e50"/>
  <line x1="175" y1="1497.9166666666665" x2="200" y2="1497.9166666666665" stroke="#34495e" stroke-width="1.5"/>
  <rect x="10" y="1487.9166666666665" width="160" height="20" fill="white" stroke="none"/>
  <text x="170" y="1502.9166666666665" text-anchor="end" font-family="Arial, Helvetica, sans-serif" font-size="13" fill="#2c3e50">HF_CLK</text>
  <circle cx="200" cy="1497.9166666666665" r="3.5" fill="#2c3e50"/>
  <line x1="175" y1="1777.5" x2="200" y2="1777.5" stroke="#34495e" stroke-width="1.5"/>
  <rect x="10" y="1767.5" width="160" height="20" fill="white" stroke="none"/>
  <text x="170" y="1782.5" text-anchor="end" font-family="Arial, Helvetica, sans-serif" font-size="13" fill="#2c3e50">SCANEN</text>
  <circle cx="200" cy="1777.5" r="3.5" fill="#2c3e50"/>
  <line x1="175" y1="2057.083333333333" x2="200" y2="2057.083333333333" stroke="#34495e" stroke-width="1.5"/>
  <rect x="10" y="2047.083333333333" width="160" height="20" fill="white" stroke="none"/>
  <text x="170" y="2062.083333333333" text-anchor="end" font-family="Arial, Helvetica, sans-serif" font-size="13" fill="#2c3e50">SCANMODE</text>
  <circle cx="200" cy="2057.083333333333" r="3.5" fill="#2c3e50"/>
  <line x1="175" y1="2336.6666666666665" x2="200" y2="2336.6666666666665" stroke="#34495e" stroke-width="1.5"/>
  <rect x="10" y="2326.6666666666665" width="160" height="20" fill="white" stroke="none"/>
  <text x="170" y="2341.6666666666665" text-anchor="end" font-family="Arial, Helvetica, sans-serif" font-size="13" fill="#2c3e50">RESULT</text>
  <circle cx="200" cy="2336.6666666666665" r="3.5" fill="#2c3e50"/>
  <line x1="175" y1="2616.25" x2="200" y2="2616.25" stroke="#34495e" stroke-width="1.5"/>
  <rect x="10" y="2606.25" width="160" height="20" fill="white" stroke="none"/>
  <text x="170" y="2621.25" text-anchor="end" font-family="Arial, Helvetica, sans-serif" font-size="13" fill="#2c3e50">DONE</text>
  <circle cx="200" cy="2616.25" r="3.5" fill="#2c3e50"/>
  <line x1="175" y1="2895.833333333333" x2="200" y2="2895.833333333333" stroke="#34495e" stroke-width="1.5"/>
  <rect x="10" y="2885.833333333333" width="160" height="20" fill="white" stroke="none"/>
  <text x="170" y="2900.833333333333" text-anchor="end" font-family="Arial, Helvetica, sans-serif" font-size="13" fill="#2c3e50">ADCOVERFLOW</text>
  <circle cx="200" cy="2895.833333333333" r="3.5" fill="#2c3e50"/>
  <line x1="175" y1="3175.4166666666665" x2="200" y2="3175.4166666666665" stroke="#34495e" stroke-width="1.5"/>
  <rect x="10" y="3165.4166666666665" width="160" height="20" fill="white" stroke="none"/>
  <text x="170" y="3180.4166666666665" text-anchor="end" font-family="Arial, Helvetica, sans-serif" font-size="13" fill="#2c3e50">SATDETECT</text>
  <circle cx="200" cy="3175.4166666666665" r="3.5" fill="#2c3e50"/>
  <line x1="550" y1="134.94791666666666" x2="575" y2="134.94791666666666" stroke="#34495e" stroke-width="1.5"/>
  <rect x="580" y="124.94791666666666" width="160" height="20" fill="white" stroke="none"/>
  <text x="585" y="139.94791666666666" text-anchor="start" font-family="Arial, Helvetica, sans-serif" font-size="13" fill="#2c3e50">MISO</text>
  <circle cx="550" cy="134.94791666666666" r="3.5" fill="#2c3e50"/>
  <line x1="550" y1="169.89583333333331" x2="575" y2="169.89583333333331" stroke="#34495e" stroke-width="1.5"/>
  <rect x="580" y="159.89583333333331" width="160" height="20" fill="white" stroke="none"/>
  <text x="585" y="174.89583333333331" text-anchor="start" font-family="Arial, Helvetica, sans-serif" font-size="13" fill="#2c3e50">OEN</text>
  <circle cx="550" cy="169.89583333333331" r="3.5" fill="#2c3e50"/>
  <line x1="550" y1="204.84375" x2="575" y2="204.84375" stroke="#34495e" stroke-width="1.5"/>
  <rect x="580" y="194.84375" width="160" height="20" fill="white" stroke="none"/>
  <text x="585" y="209.84375" text-anchor="start" font-family="Arial, Helvetica, sans-serif" font-size="13" fill="#2c3e50">DATA_RDY</text>
  <circle cx="550" cy="204.84375" r="3.5" fill="#2c3e50"/>
  <line x1="550" y1="239.79166666666666" x2="575" y2="239.79166666666666" stroke="#34495e" stroke-width="1.5"/>
  <rect x="580" y="229.79166666666666" width="160" height="20" fill="white" stroke="none"/>
  <text x="585" y="244.79166666666666" text-anchor="start" font-family="Arial, Helvetica, sans-serif" font-size="13" fill="#2c3e50">INT</text>
  <circle cx="550" cy="239.79166666666666" r="3.5" fill="#2c3e50"/>
  <line x1="550" y1="274.7395833333333" x2="575" y2="274.7395833333333" stroke="#34495e" stroke-width="1.5"/>
  <rect x="580" y="264.7395833333333" width="160" height="20" fill="white" stroke="none"/>
  <text x="585" y="279.7395833333333" text-anchor="start" font-family="Arial, Helvetica, sans-serif" font-size="13" fill="#2c3e50">ENREGAFE</text>
  <circle cx="550" cy="274.7395833333333" r="3.5" fill="#2c3e50"/>
  <line x1="550" y1="309.6875" x2="575" y2="309.6875" stroke="#34495e" stroke-width="1.5"/>
  <rect x="580" y="299.6875" width="160" height="20" fill="white" stroke="none"/>
  <text x="585" y="314.6875" text-anchor="start" font-family="Arial, Helvetica, sans-serif" font-size="13" fill="#2c3e50">ENREGADC</text>
  <circle cx="550" cy="309.6875" r="3.5" fill="#2c3e50"/>
  <line x1="550" y1="344.63541666666663" x2="575" y2="344.63541666666663" stroke="#34495e" stroke-width="1.5"/>
  <rect x="580" y="334.63541666666663" width="160" height="20" fill="white" stroke="none"/>
  <text x="585" y="349.63541666666663" text-anchor="start" font-family="Arial, Helvetica, sans-serif" font-size="13" fill="#2c3e50">PDREGDIG</text>
  <circle cx="550" cy="344.63541666666663" r="3.5" fill="#2c3e50"/>
  <line x1="550" y1="379.5833333333333" x2="575" y2="379.5833333333333" stroke="#34495e" stroke-width="1.5"/>
  <rect x="580" y="369.5833333333333" width="160" height="20" fill="white" stroke="none"/>
  <text x="585" y="384.5833333333333" text-anchor="start" font-family="Arial, Helvetica, sans-serif" font-size="13" fill="#2c3e50">RTGB</text>
  <circle cx="550" cy="379.5833333333333" r="3.5" fill="#2c3e50"/>
  <line x1="550" y1="414.53125" x2="575" y2="414.53125" stroke="#34495e" stroke-width="1.5"/>
  <rect x="580" y="404.53125" width="160" height="20" fill="white" stroke="none"/>
  <text x="585" y="419.53125" text-anchor="start" font-family="Arial, Helvetica, sans-serif" font-size="13" fill="#2c3e50">RTREGAFE</text>
  <circle cx="550" cy="414.53125" r="3.5" fill="#2c3e50"/>
  <line x1="550" y1="449.47916666666663" x2="575" y2="449.47916666666663" stroke="#34495e" stroke-width="1.5"/>
  <rect x="580" y="439.47916666666663" width="160" height="20" fill="white" stroke="none"/>
  <text x="585" y="454.47916666666663" text-anchor="start" font-family="Arial, Helvetica, sans-serif" font-size="13" fill="#2c3e50">RTREGADC</text>
  <circle cx="550" cy="449.47916666666663" r="3.5" fill="#2c3e50"/>
  <line x1="550" y1="484.4270833333333" x2="575" y2="484.4270833333333" stroke="#34495e" stroke-width="1.5"/>
  <rect x="580" y="474.4270833333333" width="160" height="20" fill="white" stroke="none"/>
  <text x="585" y="489.4270833333333" text-anchor="start" font-family="Arial, Helvetica, sans-serif" font-size="13" fill="#2c3e50">RETREGDIG</text>
  <circle cx="550" cy="484.4270833333333" r="3.5" fill="#2c3e50"/>
  <line x1="550" y1="519.375" x2="575" y2="519.375" stroke="#34495e" stroke-width="1.5"/>
  <rect x="580" y="509.375" width="160" height="20" fill="white" stroke="none"/>
  <text x="585" y="524.375" text-anchor="start" font-family="Arial, Helvetica, sans-serif" font-size="13" fill="#2c3e50">ENAFELNA</text>
  <circle cx="550" cy="519.375" r="3.5" fill="#2c3e50"/>
  <line x1="550" y1="554.3229166666666" x2="575" y2="554.3229166666666" stroke="#34495e" stroke-width="1.5"/>
  <rect x="580" y="544.3229166666666" width="160" height="20" fill="white" stroke="none"/>
  <text x="585" y="559.3229166666666" text-anchor="start" font-family="Arial, Helvetica, sans-serif" font-size="13" fill="#2c3e50">ENAFELPF</text>
  <circle cx="550" cy="554.3229166666666" r="3.5" fill="#2c3e50"/>
  <line x1="550" y1="589.2708333333333" x2="575" y2="589.2708333333333" stroke="#34495e" stroke-width="1.5"/>
  <rect x="580" y="579.2708333333333" width="160" height="20" fill="white" stroke="none"/>
  <text x="585" y="594.2708333333333" text-anchor="start" font-family="Arial, Helvetica, sans-serif" font-size="13" fill="#2c3e50">ENAFEBUF</text>
  <circle cx="550" cy="589.2708333333333" r="3.5" fill="#2c3e50"/>
  <line x1="550" y1="624.21875" x2="575" y2="624.21875" stroke="#34495e" stroke-width="1.5"/>
  <rect x="580" y="614.21875" width="160" height="20" fill="white" stroke="none"/>
  <text x="585" y="629.21875" text-anchor="start" font-family="Arial, Helvetica, sans-serif" font-size="13" fill="#2c3e50">SENSEMODE</text>
  <circle cx="550" cy="624.21875" r="3.5" fill="#2c3e50"/>
  <line x1="550" y1="659.1666666666666" x2="575" y2="659.1666666666666" stroke="#34495e" stroke-width="1.5"/>
  <rect x="580" y="649.1666666666666" width="160" height="20" fill="white" stroke="none"/>
  <text x="585" y="664.1666666666666" text-anchor="start" font-family="Arial, Helvetica, sans-serif" font-size="13" fill="#2c3e50">ENREFBUF</text>
  <circle cx="550" cy="659.1666666666666" r="3.5" fill="#2c3e50"/>
  <line x1="550" y1="694.1145833333333" x2="575" y2="694.1145833333333" stroke="#34495e" stroke-width="1.5"/>
  <rect x="580" y="684.1145833333333" width="160" height="20" fill="white" stroke="none"/>
  <text x="585" y="699.1145833333333" text-anchor="start" font-family="Arial, Helvetica, sans-serif" font-size="13" fill="#2c3e50">REFMODE</text>
  <circle cx="550" cy="694.1145833333333" r="3.5" fill="#2c3e50"/>
  <line x1="550" y1="729.0625" x2="575" y2="729.0625" stroke="#34495e" stroke-width="1.5"/>
  <rect x="580" y="719.0625" width="160" height="20" fill="white" stroke="none"/>
  <text x="585" y="734.0625" text-anchor="start" font-family="Arial, Helvetica, sans-serif" font-size="13" fill="#2c3e50">AFELPFBYP</text>
  <circle cx="550" cy="729.0625" r="3.5" fill="#2c3e50"/>
  <line x1="550" y1="764.0104166666666" x2="575" y2="764.0104166666666" stroke="#34495e" stroke-width="1.5"/>
  <rect x="580" y="754.0104166666666" width="160" height="20" fill="white" stroke="none"/>
  <text x="585" y="769.0104166666666" text-anchor="start" font-family="Arial, Helvetica, sans-serif" font-size="13" fill="#2c3e50">AFERSTCH</text>
  <circle cx="550" cy="764.0104166666666" r="3.5" fill="#2c3e50"/>
  <line x1="550" y1="798.9583333333333" x2="575" y2="798.9583333333333" stroke="#34495e" stroke-width="1.5"/>
  <rect x="580" y="788.9583333333333" width="160" height="20" fill="white" stroke="none"/>
  <text x="585" y="803.9583333333333" text-anchor="start" font-family="Arial, Helvetica, sans-serif" font-size="13" fill="#2c3e50">AFEBUFRST</text>
  <circle cx="550" cy="798.9583333333333" r="3.5" fill="#2c3e50"/>
  <line x1="550" y1="833.90625" x2="575" y2="833.90625" stroke="#34495e" stroke-width="1.5"/>
  <rect x="580" y="823.90625" width="160" height="20" fill="white" stroke="none"/>
  <text x="585" y="838.90625" text-anchor="start" font-family="Arial, Helvetica, sans-serif" font-size="13" fill="#2c3e50">AFEBUFGT</text>
  <circle cx="550" cy="833.90625" r="3.5" fill="#2c3e50"/>
  <line x1="550" y1="868.8541666666666" x2="575" y2="868.8541666666666" stroke="#34495e" stroke-width="1.5"/>
  <rect x="580" y="858.8541666666666" width="160" height="20" fill="white" stroke="none"/>
  <text x="585" y="873.8541666666666" text-anchor="start" font-family="Arial, Helvetica, sans-serif" font-size="13" fill="#2c3e50">ENMONTSENSE</text>
  <circle cx="550" cy="868.8541666666666" r="3.5" fill="#2c3e50"/>
  <line x1="550" y1="903.8020833333333" x2="575" y2="903.8020833333333" stroke="#34495e" stroke-width="1.5"/>
  <rect x="580" y="893.8020833333333" width="160" height="20" fill="white" stroke="none"/>
  <text x="585" y="908.8020833333333" text-anchor="start" font-family="Arial, Helvetica, sans-serif" font-size="13" fill="#2c3e50">ENLNAOUT</text>
  <circle cx="550" cy="903.8020833333333" r="3.5" fill="#2c3e50"/>
  <line x1="550" y1="938.75" x2="575" y2="938.75" stroke="#34495e" stroke-width="1.5"/>
  <rect x="580" y="928.75" width="160" height="20" fill="white" stroke="none"/>
  <text x="585" y="943.75" text-anchor="start" font-family="Arial, Helvetica, sans-serif" font-size="13" fill="#2c3e50">ENLPFOUT</text>
  <circle cx="550" cy="938.75" r="3.5" fill="#2c3e50"/>
  <line x1="550" y1="973.6979166666666" x2="575" y2="973.6979166666666" stroke="#34495e" stroke-width="1.5"/>
  <rect x="580" y="963.6979166666666" width="160" height="20" fill="white" stroke="none"/>
  <text x="585" y="978.6979166666666" text-anchor="start" font-family="Arial, Helvetica, sans-serif" font-size="13" fill="#2c3e50">ENMONAFE</text>
  <circle cx="550" cy="973.6979166666666" r="3.5" fill="#2c3e50"/>
  <line x1="550" y1="1008.6458333333333" x2="575" y2="1008.6458333333333" stroke="#34495e" stroke-width="1.5"/>
  <rect x="580" y="998.6458333333333" width="160" height="20" fill="white" stroke="none"/>
  <text x="585" y="1013.6458333333333" text-anchor="start" font-family="Arial, Helvetica, sans-serif" font-size="13" fill="#2c3e50">AFELPFBW</text>
  <circle cx="550" cy="1008.6458333333333" r="3.5" fill="#2c3e50"/>
  <line x1="550" y1="1043.59375" x2="575" y2="1043.59375" stroke="#34495e" stroke-width="1.5"/>
  <rect x="580" y="1033.59375" width="160" height="20" fill="white" stroke="none"/>
  <text x="585" y="1048.59375" text-anchor="start" font-family="Arial, Helvetica, sans-serif" font-size="13" fill="#2c3e50">CHSEL</text>
  <circle cx="550" cy="1043.59375" r="3.5" fill="#2c3e50"/>
  <line x1="550" y1="1078.5416666666665" x2="575" y2="1078.5416666666665" stroke="#34495e" stroke-width="1.5"/>
  <rect x="580" y="1068.5416666666665" width="160" height="20" fill="white" stroke="none"/>
  <text x="585" y="1083.5416666666665" text-anchor="start" font-family="Arial, Helvetica, sans-serif" font-size="13" fill="#2c3e50">ENLOWPWR</text>
  <circle cx="550" cy="1078.5416666666665" r="3.5" fill="#2c3e50"/>
  <line x1="550" y1="1113.4895833333333" x2="575" y2="1113.4895833333333" stroke="#34495e" stroke-width="1.5"/>
  <rect x="580" y="1103.4895833333333" width="160" height="20" fill="white" stroke="none"/>
  <text x="585" y="1118.4895833333333" text-anchor="start" font-family="Arial, Helvetica, sans-serif" font-size="13" fill="#2c3e50">CHEN</text>
  <circle cx="550" cy="1113.4895833333333" r="3.5" fill="#2c3e50"/>
  <line x1="550" y1="1148.4375" x2="575" y2="1148.4375" stroke="#34495e" stroke-width="1.5"/>
  <rect x="580" y="1138.4375" width="160" height="20" fill="white" stroke="none"/>
  <text x="585" y="1153.4375" text-anchor="start" font-family="Arial, Helvetica, sans-serif" font-size="13" fill="#2c3e50">ENBIAS</text>
  <circle cx="550" cy="1148.4375" r="3.5" fill="#2c3e50"/>
  <line x1="550" y1="1183.3854166666665" x2="575" y2="1183.3854166666665" stroke="#34495e" stroke-width="1.5"/>
  <rect x="580" y="1173.3854166666665" width="160" height="20" fill="white" stroke="none"/>
  <text x="585" y="1188.3854166666665" text-anchor="start" font-family="Arial, Helvetica, sans-serif" font-size="13" fill="#2c3e50">ENTSENSE</text>
  <circle cx="550" cy="1183.3854166666665" r="3.5" fill="#2c3e50"/>
  <line x1="550" y1="1218.3333333333333" x2="575" y2="1218.3333333333333" stroke="#34495e" stroke-width="1.5"/>
  <rect x="580" y="1208.3333333333333" width="160" height="20" fill="white" stroke="none"/>
  <text x="585" y="1223.3333333333333" text-anchor="start" font-family="Arial, Helvetica, sans-serif" font-size="13" fill="#2c3e50">ENITEST</text>
  <circle cx="550" cy="1218.3333333333333" r="3.5" fill="#2c3e50"/>
  <line x1="550" y1="1253.28125" x2="575" y2="1253.28125" stroke="#34495e" stroke-width="1.5"/>
  <rect x="580" y="1243.28125" width="160" height="20" fill="white" stroke="none"/>
  <text x="585" y="1258.28125" text-anchor="start" font-family="Arial, Helvetica, sans-serif" font-size="13" fill="#2c3e50">RTBGBIAS</text>
  <circle cx="550" cy="1253.28125" r="3.5" fill="#2c3e50"/>
  <line x1="550" y1="1288.2291666666665" x2="575" y2="1288.2291666666665" stroke="#34495e" stroke-width="1.5"/>
  <rect x="580" y="1278.2291666666665" width="160" height="20" fill="white" stroke="none"/>
  <text x="585" y="1293.2291666666665" text-anchor="start" font-family="Arial, Helvetica, sans-serif" font-size="13" fill="#2c3e50">ITAFELNACH0</text>
  <circle cx="550" cy="1288.2291666666665" r="3.5" fill="#2c3e50"/>
  <line x1="550" y1="1323.1770833333333" x2="575" y2="1323.1770833333333" stroke="#34495e" stroke-width="1.5"/>
  <rect x="580" y="1313.1770833333333" width="160" height="20" fill="white" stroke="none"/>
  <text x="585" y="1328.1770833333333" text-anchor="start" font-family="Arial, Helvetica, sans-serif" font-size="13" fill="#2c3e50">ITAFELNACH1</text>
  <circle cx="550" cy="1323.1770833333333" r="3.5" fill="#2c3e50"/>
  <line x1="550" y1="1358.125" x2="575" y2="1358.125" stroke="#34495e" stroke-width="1.5"/>
  <rect x="580" y="1348.125" width="160" height="20" fill="white" stroke="none"/>
  <text x="585" y="1363.125" text-anchor="start" font-family="Arial, Helvetica, sans-serif" font-size="13" fill="#2c3e50">ITAFELNACH2</text>
  <circle cx="550" cy="1358.125" r="3.5" fill="#2c3e50"/>
  <line x1="550" y1="1393.0729166666665" x2="575" y2="1393.0729166666665" stroke="#34495e" stroke-width="1.5"/>
  <rect x="580" y="1383.0729166666665" width="160" height="20" fill="white" stroke="none"/>
  <text x="585" y="1398.0729166666665" text-anchor="start" font-family="Arial, Helvetica, sans-serif" font-size="13" fill="#2c3e50">ITAFELNACH3</text>
  <circle cx="550" cy="1393.0729166666665" r="3.5" fill="#2c3e50"/>
  <line x1="550" y1="1428.0208333333333" x2="575" y2="1428.0208333333333" stroke="#34495e" stroke-width="1.5"/>
  <rect x="580" y="1418.0208333333333" width="160" height="20" fill="white" stroke="none"/>
  <text x="585" y="1433.0208333333333" text-anchor="start" font-family="Arial, Helvetica, sans-serif" font-size="13" fill="#2c3e50">ITAFELNACH4</text>
  <circle cx="550" cy="1428.0208333333333" r="3.5" fill="#2c3e50"/>
  <line x1="550" y1="1462.96875" x2="575" y2="1462.96875" stroke="#34495e" stroke-width="1.5"/>
  <rect x="580" y="1452.96875" width="160" height="20" fill="white" stroke="none"/>
  <text x="585" y="1467.96875" text-anchor="start" font-family="Arial, Helvetica, sans-serif" font-size="13" fill="#2c3e50">ITAFELNACH5</text>
  <circle cx="550" cy="1462.96875" r="3.5" fill="#2c3e50"/>
  <line x1="550" y1="1497.9166666666665" x2="575" y2="1497.9166666666665" stroke="#34495e" stroke-width="1.5"/>
  <rect x="580" y="1487.9166666666665" width="160" height="20" fill="white" stroke="none"/>
  <text x="585" y="1502.9166666666665" text-anchor="start" font-family="Arial, Helvetica, sans-serif" font-size="13" fill="#2c3e50">ITAFELNACH6</text>
  <circle cx="550" cy="1497.9166666666665" r="3.5" fill="#2c3e50"/>
  <line x1="550" y1="1532.8645833333333" x2="575" y2="1532.8645833333333" stroke="#34495e" stroke-width="1.5"/>
  <rect x="580" y="1522.8645833333333" width="160" height="20" fill="white" stroke="none"/>
  <text x="585" y="1537.8645833333333" text-anchor="start" font-family="Arial, Helvetica, sans-serif" font-size="13" fill="#2c3e50">ITAFELNACH7</text>
  <circle cx="550" cy="1532.8645833333333" r="3.5" fill="#2c3e50"/>
  <line x1="550" y1="1567.8125" x2="575" y2="1567.8125" stroke="#34495e" stroke-width="1.5"/>
  <rect x="580" y="1557.8125" width="160" height="20" fill="white" stroke="none"/>
  <text x="585" y="1572.8125" text-anchor="start" font-family="Arial, Helvetica, sans-serif" font-size="13" fill="#2c3e50">ITAFELPFCH0</text>
  <circle cx="550" cy="1567.8125" r="3.5" fill="#2c3e50"/>
  <line x1="550" y1="1602.7604166666665" x2="575" y2="1602.7604166666665" stroke="#34495e" stroke-width="1.5"/>
  <rect x="580" y="1592.7604166666665" width="160" height="20" fill="white" stroke="none"/>
  <text x="585" y="1607.7604166666665" text-anchor="start" font-family="Arial, Helvetica, sans-serif" font-size="13" fill="#2c3e50">ITAFELPFCH1</text>
  <circle cx="550" cy="1602.7604166666665" r="3.5" fill="#2c3e50"/>
  <line x1="550" y1="1637.7083333333333" x2="575" y2="1637.7083333333333" stroke="#34495e" stroke-width="1.5"/>
  <rect x="580" y="1627.7083333333333" width="160" height="20" fill="white" stroke="none"/>
  <text x="585" y="1642.7083333333333" text-anchor="start" font-family="Arial, Helvetica, sans-serif" font-size="13" fill="#2c3e50">ITAFELPFCH2</text>
  <circle cx="550" cy="1637.7083333333333" r="3.5" fill="#2c3e50"/>
  <line x1="550" y1="1672.65625" x2="575" y2="1672.65625" stroke="#34495e" stroke-width="1.5"/>
  <rect x="580" y="1662.65625" width="160" height="20" fill="white" stroke="none"/>
  <text x="585" y="1677.65625" text-anchor="start" font-family="Arial, Helvetica, sans-serif" font-size="13" fill="#2c3e50">ITAFELPFCH3</text>
  <circle cx="550" cy="1672.65625" r="3.5" fill="#2c3e50"/>
  <line x1="550" y1="1707.6041666666665" x2="575" y2="1707.6041666666665" stroke="#34495e" stroke-width="1.5"/>
  <rect x="580" y="1697.6041666666665" width="160" height="20" fill="white" stroke="none"/>
  <text x="585" y="1712.6041666666665" text-anchor="start" font-family="Arial, Helvetica, sans-serif" font-size="13" fill="#2c3e50">ITAFELPFCH4</text>
  <circle cx="550" cy="1707.6041666666665" r="3.5" fill="#2c3e50"/>
  <line x1="550" y1="1742.5520833333333" x2="575" y2="1742.5520833333333" stroke="#34495e" stroke-width="1.5"/>
  <rect x="580" y="1732.5520833333333" width="160" height="20" fill="white" stroke="none"/>
  <text x="585" y="1747.5520833333333" text-anchor="start" font-family="Arial, Helvetica, sans-serif" font-size="13" fill="#2c3e50">ITAFELPFCH5</text>
  <circle cx="550" cy="1742.5520833333333" r="3.5" fill="#2c3e50"/>
  <line x1="550" y1="1777.5" x2="575" y2="1777.5" stroke="#34495e" stroke-width="1.5"/>
  <rect x="580" y="1767.5" width="160" height="20" fill="white" stroke="none"/>
  <text x="585" y="1782.5" text-anchor="start" font-family="Arial, Helvetica, sans-serif" font-size="13" fill="#2c3e50">ITAFELPFCH6</text>
  <circle cx="550" cy="1777.5" r="3.5" fill="#2c3e50"/>
  <line x1="550" y1="1812.4479166666665" x2="575" y2="1812.4479166666665" stroke="#34495e" stroke-width="1.5"/>
  <rect x="580" y="1802.4479166666665" width="160" height="20" fill="white" stroke="none"/>
  <text x="585" y="1817.4479166666665" text-anchor="start" font-family="Arial, Helvetica, sans-serif" font-size="13" fill="#2c3e50">ITAFELPFCH7</text>
  <circle cx="550" cy="1812.4479166666665" r="3.5" fill="#2c3e50"/>
  <line x1="550" y1="1847.3958333333333" x2="575" y2="1847.3958333333333" stroke="#34495e" stroke-width="1.5"/>
  <rect x="580" y="1837.3958333333333" width="160" height="20" fill="white" stroke="none"/>
  <text x="585" y="1852.3958333333333" text-anchor="start" font-family="Arial, Helvetica, sans-serif" font-size="13" fill="#2c3e50">ITAFEBUF</text>
  <circle cx="550" cy="1847.3958333333333" r="3.5" fill="#2c3e50"/>
  <line x1="550" y1="1882.3437499999998" x2="575" y2="1882.3437499999998" stroke="#34495e" stroke-width="1.5"/>
  <rect x="580" y="1872.3437499999998" width="160" height="20" fill="white" stroke="none"/>
  <text x="585" y="1887.3437499999998" text-anchor="start" font-family="Arial, Helvetica, sans-serif" font-size="13" fill="#2c3e50">ITADC</text>
  <circle cx="550" cy="1882.3437499999998" r="3.5" fill="#2c3e50"/>
  <line x1="550" y1="1917.2916666666665" x2="575" y2="1917.2916666666665" stroke="#34495e" stroke-width="1.5"/>
  <rect x="580" y="1907.2916666666665" width="160" height="20" fill="white" stroke="none"/>
  <text x="585" y="1922.2916666666665" text-anchor="start" font-family="Arial, Helvetica, sans-serif" font-size="13" fill="#2c3e50">ENADCANALOG</text>
  <circle cx="550" cy="1917.2916666666665" r="3.5" fill="#2c3e50"/>
  <line x1="550" y1="1952.2395833333333" x2="575" y2="1952.2395833333333" stroke="#34495e" stroke-width="1.5"/>
  <rect x="580" y="1942.2395833333333" width="160" height="20" fill="white" stroke="none"/>
  <text x="585" y="1957.2395833333333" text-anchor="start" font-family="Arial, Helvetica, sans-serif" font-size="13" fill="#2c3e50">ENMES</text>
  <circle cx="550" cy="1952.2395833333333" r="3.5" fill="#2c3e50"/>
  <line x1="550" y1="1987.1874999999998" x2="575" y2="1987.1874999999998" stroke="#34495e" stroke-width="1.5"/>
  <rect x="580" y="1977.1874999999998" width="160" height="20" fill="white" stroke="none"/>
  <text x="585" y="1992.1874999999998" text-anchor="start" font-family="Arial, Helvetica, sans-serif" font-size="13" fill="#2c3e50">ENCHP</text>
  <circle cx="550" cy="1987.1874999999998" r="3.5" fill="#2c3e50"/>
  <line x1="550" y1="2022.1354166666665" x2="575" y2="2022.1354166666665" stroke="#34495e" stroke-width="1.5"/>
  <rect x="580" y="2012.1354166666665" width="160" height="20" fill="white" stroke="none"/>
  <text x="585" y="2027.1354166666665" text-anchor="start" font-family="Arial, Helvetica, sans-serif" font-size="13" fill="#2c3e50">ENDWA</text>
  <circle cx="550" cy="2022.1354166666665" r="3.5" fill="#2c3e50"/>
  <line x1="550" y1="2057.083333333333" x2="575" y2="2057.083333333333" stroke="#34495e" stroke-width="1.5"/>
  <rect x="580" y="2047.083333333333" width="160" height="20" fill="white" stroke="none"/>
  <text x="585" y="2062.083333333333" text-anchor="start" font-family="Arial, Helvetica, sans-serif" font-size="13" fill="#2c3e50">ADCOSR</text>
  <circle cx="550" cy="2057.083333333333" r="3.5" fill="#2c3e50"/>
  <line x1="550" y1="2092.03125" x2="575" y2="2092.03125" stroke="#34495e" stroke-width="1.5"/>
  <rect x="580" y="2082.03125" width="160" height="20" fill="white" stroke="none"/>
  <text x="585" y="2097.03125" text-anchor="start" font-family="Arial, Helvetica, sans-serif" font-size="13" fill="#2c3e50">ADCGAIN</text>
  <circle cx="550" cy="2092.03125" r="3.5" fill="#2c3e50"/>
  <line x1="550" y1="2126.9791666666665" x2="575" y2="2126.9791666666665" stroke="#34495e" stroke-width="1.5"/>
  <rect x="580" y="2116.9791666666665" width="160" height="20" fill="white" stroke="none"/>
  <text x="585" y="2131.9791666666665" text-anchor="start" font-family="Arial, Helvetica, sans-serif" font-size="13" fill="#2c3e50">ENEXTCLK</text>
  <circle cx="550" cy="2126.9791666666665" r="3.5" fill="#2c3e50"/>
  <line x1="550" y1="2161.927083333333" x2="575" y2="2161.927083333333" stroke="#34495e" stroke-width="1.5"/>
  <rect x="580" y="2151.927083333333" width="160" height="20" fill="white" stroke="none"/>
  <text x="585" y="2166.927083333333" text-anchor="start" font-family="Arial, Helvetica, sans-serif" font-size="13" fill="#2c3e50">DONEOVERRIDE</text>
  <circle cx="550" cy="2161.927083333333" r="3.5" fill="#2c3e50"/>
  <line x1="550" y1="2196.875" x2="575" y2="2196.875" stroke="#34495e" stroke-width="1.5"/>
  <rect x="580" y="2186.875" width="160" height="20" fill="white" stroke="none"/>
  <text x="585" y="2201.875" text-anchor="start" font-family="Arial, Helvetica, sans-serif" font-size="13" fill="#2c3e50">DONEOVERRIDEVAL</text>
  <circle cx="550" cy="2196.875" r="3.5" fill="#2c3e50"/>
  <line x1="550" y1="2231.8229166666665" x2="575" y2="2231.8229166666665" stroke="#34495e" stroke-width="1.5"/>
  <rect x="580" y="2221.8229166666665" width="160" height="20" fill="white" stroke="none"/>
  <text x="585" y="2236.8229166666665" text-anchor="start" font-family="Arial, Helvetica, sans-serif" font-size="13" fill="#2c3e50">ANARSTOVERRIDE</text>
  <circle cx="550" cy="2231.8229166666665" r="3.5" fill="#2c3e50"/>
  <line x1="550" y1="2266.770833333333" x2="575" y2="2266.770833333333" stroke="#34495e" stroke-width="1.5"/>
  <rect x="580" y="2256.770833333333" width="160" height="20" fill="white" stroke="none"/>
  <text x="585" y="2271.770833333333" text-anchor="start" font-family="Arial, Helvetica, sans-serif" font-size="13" fill="#2c3e50">ANARSTOVERRIDEVAL</text>
  <circle cx="550" cy="2266.770833333333" r="3.5" fill="#2c3e50"/>
  <line x1="550" y1="2301.71875" x2="575" y2="2301.71875" stroke="#34495e" stroke-width="1.5"/>
  <rect x="580" y="2291.71875" width="160" height="20" fill="white" stroke="none"/>
  <text x="585" y="2306.71875" text-anchor="start" font-family="Arial, Helvetica, sans-serif" font-size="13" fill="#2c3e50">DIGDEBUGSEL</text>
  <circle cx="550" cy="2301.71875" r="3.5" fill="#2c3e50"/>
  <line x1="550" y1="2336.6666666666665" x2="575" y2="2336.6666666666665" stroke="#34495e" stroke-width="1.5"/>
  <rect x="580" y="2326.6666666666665" width="160" height="20" fill="white" stroke="none"/>
  <text x="585" y="2341.6666666666665" text-anchor="start" font-family="Arial, Helvetica, sans-serif" font-size="13" fill="#2c3e50">ANATESTSEL</text>
  <circle cx="550" cy="2336.6666666666665" r="3.5" fill="#2c3e50"/>
  <line x1="550" y1="2371.614583333333" x2="575" y2="2371.614583333333" stroke="#34495e" stroke-width="1.5"/>
  <rect x="580" y="2361.614583333333" width="160" height="20" fill="white" stroke="none"/>
  <text x="585" y="2376.614583333333" text-anchor="start" font-family="Arial, Helvetica, sans-serif" font-size="13" fill="#2c3e50">SAMPLE_CLK</text>
  <circle cx="550" cy="2371.614583333333" r="3.5" fill="#2c3e50"/>
  <line x1="550" y1="2406.5625" x2="575" y2="2406.5625" stroke="#34495e" stroke-width="1.5"/>
  <rect x="580" y="2396.5625" width="160" height="20" fill="white" stroke="none"/>
  <text x="585" y="2411.5625" text-anchor="start" font-family="Arial, Helvetica, sans-serif" font-size="13" fill="#2c3e50">nARST</text>
  <circle cx="550" cy="2406.5625" r="3.5" fill="#2c3e50"/>
  <line x1="550" y1="2441.5104166666665" x2="575" y2="2441.5104166666665" stroke="#34495e" stroke-width="1.5"/>
  <rect x="580" y="2431.5104166666665" width="160" height="20" fill="white" stroke="none"/>
  <text x="585" y="2446.5104166666665" text-anchor="start" font-family="Arial, Helvetica, sans-serif" font-size="13" fill="#2c3e50">ENATMIN</text>
  <circle cx="550" cy="2441.5104166666665" r="3.5" fill="#2c3e50"/>
  <line x1="550" y1="2476.458333333333" x2="575" y2="2476.458333333333" stroke="#34495e" stroke-width="1.5"/>
  <rect x="580" y="2466.458333333333" width="160" height="20" fill="white" stroke="none"/>
  <text x="585" y="2481.458333333333" text-anchor="start" font-family="Arial, Helvetica, sans-serif" font-size="13" fill="#2c3e50">ENATMOUT</text>
  <circle cx="550" cy="2476.458333333333" r="3.5" fill="#2c3e50"/>
  <line x1="550" y1="2511.40625" x2="575" y2="2511.40625" stroke="#34495e" stroke-width="1.5"/>
  <rect x="580" y="2501.40625" width="160" height="20" fill="white" stroke="none"/>
  <text x="585" y="2516.40625" text-anchor="start" font-family="Arial, Helvetica, sans-serif" font-size="13" fill="#2c3e50">ENATMLNA</text>
  <circle cx="550" cy="2511.40625" r="3.5" fill="#2c3e50"/>
  <line x1="550" y1="2546.3541666666665" x2="575" y2="2546.3541666666665" stroke="#34495e" stroke-width="1.5"/>
  <rect x="580" y="2536.3541666666665" width="160" height="20" fill="white" stroke="none"/>
  <text x="585" y="2551.3541666666665" text-anchor="start" font-family="Arial, Helvetica, sans-serif" font-size="13" fill="#2c3e50">ENATMLPF</text>
  <circle cx="550" cy="2546.3541666666665" r="3.5" fill="#2c3e50"/>
  <line x1="550" y1="2581.302083333333" x2="575" y2="2581.302083333333" stroke="#34495e" stroke-width="1.5"/>
  <rect x="580" y="2571.302083333333" width="160" height="20" fill="white" stroke="none"/>
  <text x="585" y="2586.302083333333" text-anchor="start" font-family="Arial, Helvetica, sans-serif" font-size="13" fill="#2c3e50">ENATMBUF</text>
  <circle cx="550" cy="2581.302083333333" r="3.5" fill="#2c3e50"/>
  <line x1="550" y1="2616.25" x2="575" y2="2616.25" stroke="#34495e" stroke-width="1.5"/>
  <rect x="580" y="2606.25" width="160" height="20" fill="white" stroke="none"/>
  <text x="585" y="2621.25" text-anchor="start" font-family="Arial, Helvetica, sans-serif" font-size="13" fill="#2c3e50">ENTESTADC</text>
  <circle cx="550" cy="2616.25" r="3.5" fill="#2c3e50"/>
  <line x1="550" y1="2651.1979166666665" x2="575" y2="2651.1979166666665" stroke="#34495e" stroke-width="1.5"/>
  <rect x="580" y="2641.1979166666665" width="160" height="20" fill="white" stroke="none"/>
  <text x="585" y="2656.1979166666665" text-anchor="start" font-family="Arial, Helvetica, sans-serif" font-size="13" fill="#2c3e50">ATMBUFBYP</text>
  <circle cx="550" cy="2651.1979166666665" r="3.5" fill="#2c3e50"/>
  <line x1="550" y1="2686.145833333333" x2="575" y2="2686.145833333333" stroke="#34495e" stroke-width="1.5"/>
  <rect x="580" y="2676.145833333333" width="160" height="20" fill="white" stroke="none"/>
  <text x="585" y="2691.145833333333" text-anchor="start" font-family="Arial, Helvetica, sans-serif" font-size="13" fill="#2c3e50">ATMMODE</text>
  <circle cx="550" cy="2686.145833333333" r="3.5" fill="#2c3e50"/>
  <line x1="550" y1="2721.09375" x2="575" y2="2721.09375" stroke="#34495e" stroke-width="1.5"/>
  <rect x="580" y="2711.09375" width="160" height="20" fill="white" stroke="none"/>
  <text x="585" y="2726.09375" text-anchor="start" font-family="Arial, Helvetica, sans-serif" font-size="13" fill="#2c3e50">ATMCHSEL</text>
  <circle cx="550" cy="2721.09375" r="3.5" fill="#2c3e50"/>
  <line x1="550" y1="2756.0416666666665" x2="575" y2="2756.0416666666665" stroke="#34495e" stroke-width="1.5"/>
  <rect x="580" y="2746.0416666666665" width="160" height="20" fill="white" stroke="none"/>
  <text x="585" y="2761.0416666666665" text-anchor="start" font-family="Arial, Helvetica, sans-serif" font-size="13" fill="#2c3e50">REG_00</text>
  <circle cx="550" cy="2756.0416666666665" r="3.5" fill="#2c3e50"/>
  <line x1="550" y1="2790.989583333333" x2="575" y2="2790.989583333333" stroke="#34495e" stroke-width="1.5"/>
  <rect x="580" y="2780.989583333333" width="160" height="20" fill="white" stroke="none"/>
  <text x="585" y="2795.989583333333" text-anchor="start" font-family="Arial, Helvetica, sans-serif" font-size="13" fill="#2c3e50">REG_03</text>
  <circle cx="550" cy="2790.989583333333" r="3.5" fill="#2c3e50"/>
  <line x1="550" y1="2825.9375" x2="575" y2="2825.9375" stroke="#34495e" stroke-width="1.5"/>
  <rect x="580" y="2815.9375" width="160" height="20" fill="white" stroke="none"/>
  <text x="585" y="2830.9375" text-anchor="start" font-family="Arial, Helvetica, sans-serif" font-size="13" fill="#2c3e50">REG_04</text>
  <circle cx="550" cy="2825.9375" r="3.5" fill="#2c3e50"/>
  <line x1="550" y1="2860.8854166666665" x2="575" y2="2860.8854166666665" stroke="#34495e" stroke-width="1.5"/>
  <rect x="580" y="2850.8854166666665" width="160" height="20" fill="white" stroke="none"/>
  <text x="585" y="2865.8854166666665" text-anchor="start" font-family="Arial, Helvetica, sans-serif" font-size="13" fill="#2c3e50">REG_0E</text>
  <circle cx="550" cy="2860.8854166666665" r="3.5" fill="#2c3e50"/>
  <line x1="550" y1="2895.833333333333" x2="575" y2="2895.833333333333" stroke="#34495e" stroke-width="1.5"/>
  <rect x="580" y="2885.833333333333" width="160" height="20" fill="white" stroke="none"/>
  <text x="585" y="2900.833333333333" text-anchor="start" font-family="Arial, Helvetica, sans-serif" font-size="13" fill="#2c3e50">REG_0F</text>
  <circle cx="550" cy="2895.833333333333" r="3.5" fill="#2c3e50"/>
  <line x1="550" y1="2930.78125" x2="575" y2="2930.78125" stroke="#34495e" stroke-width="1.5"/>
  <rect x="580" y="2920.78125" width="160" height="20" fill="white" stroke="none"/>
  <text x="585" y="2935.78125" text-anchor="start" font-family="Arial, Helvetica, sans-serif" font-size="13" fill="#2c3e50">REG_10</text>
  <circle cx="550" cy="2930.78125" r="3.5" fill="#2c3e50"/>
  <line x1="550" y1="2965.7291666666665" x2="575" y2="2965.7291666666665" stroke="#34495e" stroke-width="1.5"/>
  <rect x="580" y="2955.7291666666665" width="160" height="20" fill="white" stroke="none"/>
  <text x="585" y="2970.7291666666665" text-anchor="start" font-family="Arial, Helvetica, sans-serif" font-size="13" fill="#2c3e50">REG_11</text>
  <circle cx="550" cy="2965.7291666666665" r="3.5" fill="#2c3e50"/>
  <line x1="550" y1="3000.677083333333" x2="575" y2="3000.677083333333" stroke="#34495e" stroke-width="1.5"/>
  <rect x="580" y="2990.677083333333" width="160" height="20" fill="white" stroke="none"/>
  <text x="585" y="3005.677083333333" text-anchor="start" font-family="Arial, Helvetica, sans-serif" font-size="13" fill="#2c3e50">REG_13</text>
  <circle cx="550" cy="3000.677083333333" r="3.5" fill="#2c3e50"/>
  <line x1="550" y1="3035.625" x2="575" y2="3035.625" stroke="#34495e" stroke-width="1.5"/>
  <rect x="580" y="3025.625" width="160" height="20" fill="white" stroke="none"/>
  <text x="585" y="3040.625" text-anchor="start" font-family="Arial, Helvetica, sans-serif" font-size="13" fill="#2c3e50">REG_15</text>
  <circle cx="550" cy="3035.625" r="3.5" fill="#2c3e50"/>
  <line x1="550" y1="3070.5729166666665" x2="575" y2="3070.5729166666665" stroke="#34495e" stroke-width="1.5"/>
  <rect x="580" y="3060.5729166666665" width="160" height="20" fill="white" stroke="none"/>
  <text x="585" y="3075.5729166666665" text-anchor="start" font-family="Arial, Helvetica, sans-serif" font-size="13" fill="#2c3e50">REG_17</text>
  <circle cx="550" cy="3070.5729166666665" r="3.5" fill="#2c3e50"/>
  <line x1="550" y1="3105.520833333333" x2="575" y2="3105.520833333333" stroke="#34495e" stroke-width="1.5"/>
  <rect x="580" y="3095.520833333333" width="160" height="20" fill="white" stroke="none"/>
  <text x="585" y="3110.520833333333" text-anchor="start" font-family="Arial, Helvetica, sans-serif" font-size="13" fill="#2c3e50">REG_18</text>
  <circle cx="550" cy="3105.520833333333" r="3.5" fill="#2c3e50"/>
  <line x1="550" y1="3140.46875" x2="575" y2="3140.46875" stroke="#34495e" stroke-width="1.5"/>
  <rect x="580" y="3130.46875" width="160" height="20" fill="white" stroke="none"/>
  <text x="585" y="3145.46875" text-anchor="start" font-family="Arial, Helvetica, sans-serif" font-size="13" fill="#2c3e50">REG_19</text>
  <circle cx="550" cy="3140.46875" r="3.5" fill="#2c3e50"/>
  <line x1="550" y1="3175.4166666666665" x2="575" y2="3175.4166666666665" stroke="#34495e" stroke-width="1.5"/>
  <rect x="580" y="3165.4166666666665" width="160" height="20" fill="white" stroke="none"/>
  <text x="585" y="3180.4166666666665" text-anchor="start" font-family="Arial, Helvetica, sans-serif" font-size="13" fill="#2c3e50">REG_1A</text>
  <circle cx="550" cy="3175.4166666666665" r="3.5" fill="#2c3e50"/>
  <line x1="550" y1="3210.364583333333" x2="575" y2="3210.364583333333" stroke="#34495e" stroke-width="1.5"/>
  <rect x="580" y="3200.364583333333" width="160" height="20" fill="white" stroke="none"/>
  <text x="585" y="3215.364583333333" text-anchor="start" font-family="Arial, Helvetica, sans-serif" font-size="13" fill="#2c3e50">REG_1D</text>
  <circle cx="550" cy="3210.364583333333" r="3.5" fill="#2c3e50"/>
  <line x1="550" y1="3245.3125" x2="575" y2="3245.3125" stroke="#34495e" stroke-width="1.5"/>
  <rect x="580" y="3235.3125" width="160" height="20" fill="white" stroke="none"/>
  <text x="585" y="3250.3125" text-anchor="start" font-family="Arial, Helvetica, sans-serif" font-size="13" fill="#2c3e50">REG_1E</text>
  <circle cx="550" cy="3245.3125" r="3.5" fill="#2c3e50"/>
  <line x1="550" y1="3280.2604166666665" x2="575" y2="3280.2604166666665" stroke="#34495e" stroke-width="1.5"/>
  <rect x="580" y="3270.2604166666665" width="160" height="20" fill="white" stroke="none"/>
  <text x="585" y="3285.2604166666665" text-anchor="start" font-family="Arial, Helvetica, sans-serif" font-size="13" fill="#2c3e50">REG_1F</text>
  <circle cx="550" cy="3280.2604166666665" r="3.5" fill="#2c3e50"/>
  <line x1="550" y1="3315.208333333333" x2="575" y2="3315.208333333333" stroke="#34495e" stroke-width="1.5"/>
  <rect x="580" y="3305.208333333333" width="160" height="20" fill="white" stroke="none"/>
  <text x="585" y="3320.208333333333" text-anchor="start" font-family="Arial, Helvetica, sans-serif" font-size="13" fill="#2c3e50">REG_20</text>
  <circle cx="550" cy="3315.208333333333" r="3.5" fill="#2c3e50"/>
  <line x1="550" y1="3350.15625" x2="575" y2="3350.15625" stroke="#34495e" stroke-width="1.5"/>
  <rect x="580" y="3340.15625" width="160" height="20" fill="white" stroke="none"/>
  <text x="585" y="3355.15625" text-anchor="start" font-family="Arial, Helvetica, sans-serif" font-size="13" fill="#2c3e50">REG_21</text>
  <circle cx="550" cy="3350.15625" r="3.5" fill="#2c3e50"/>
  <line x1="550" y1="3385.1041666666665" x2="575" y2="3385.1041666666665" stroke="#34495e" stroke-width="1.5"/>
  <rect x="580" y="3375.1041666666665" width="160" height="20" fill="white" stroke="none"/>
  <text x="585" y="3390.1041666666665" text-anchor="start" font-family="Arial, Helvetica, sans-serif" font-size="13" fill="#2c3e50">REG_22</text>
  <circle cx="550" cy="3385.1041666666665" r="3.5" fill="#2c3e50"/>
  <line x1="550" y1="3420.052083333333" x2="575" y2="3420.052083333333" stroke="#34495e" stroke-width="1.5"/>
  <rect x="580" y="3410.052083333333" width="160" height="20" fill="white" stroke="none"/>
  <text x="585" y="3425.052083333333" text-anchor="start" font-family="Arial, Helvetica, sans-serif" font-size="13" fill="#2c3e50">REG_23</text>
  <circle cx="550" cy="3420.052083333333" r="3.5" fill="#2c3e50"/>
  <text x="375.0" y="3515" text-anchor="middle" font-family="Arial, Helvetica, sans-serif" font-size="11" fill="#7f8c8d">Inputs: 11  |  Outputs: 95</text>
</svg>